<?xml version="1.0" encoding="utf-8" ?>
<svg baseProfile="full" height="100%" version="1.1" viewBox="0,0,1801,1201" width="100%" xmlns="http://www.w3.org/2000/svg" xmlns:ev="http://www.w3.org/2001/xml-events" xmlns:xlink="http://www.w3.org/1999/xlink"><defs /><line style="fill : none; stroke : black; stroke-width : 6.0; stroke-dasharray : none;" x1="0.0" x2="1800.0" y1="1201.0" y2="1201.0" /><line style="fill : none; stroke : black; stroke-width : 6.0; stroke-dasharray : none;" x1="1800.0" x2="1800.0" y1="1201.0" y2="901.0" /><line style="fill : none; stroke : black; stroke-width : 6.0; stroke-dasharray : none;" x1="1800.0" x2="0.0" y1="901.0" y2="901.0" /><line style="fill : none; stroke : black; stroke-width : 6.0; stroke-dasharray : none;" x1="0.0" x2="0.0" y1="901.0" y2="1201.0" /><text font-size="105.0" x="390.0" y="1081.0">Embedding, dim = 1024</text><line style="fill : none; stroke : black; stroke-width : 6.0; stroke-dasharray : none;" x1="900.0" x2="900.0" y1="901.0" y2="751.0" /><path d=" M 24.02, 9.510190771321264  0, 0  24.02, -9.510190771321264   C  24.02, -9.510190771321264 20.6572, -4.089382031668143 20.6572, 0   20.6572, 4.089382031668143 24.02, 9.510190771321264 24.02, 9.510190771321264   Z " style="fill : black; stroke : black; stroke-width : 6.0; stroke-dasharray : none;" transform="translate(900.0,751.0) rotate(90.0,0,0)" /><line style="fill : none; stroke : black; stroke-width : 6.0; stroke-dasharray : none;" x1="0.0" x2="1800.0" y1="751.0" y2="751.0" /><line style="fill : none; stroke : black; stroke-width : 6.0; stroke-dasharray : none;" x1="1800.0" x2="1800.0" y1="751.0" y2="451.0" /><line style="fill : none; stroke : black; stroke-width : 6.0; stroke-dasharray : none;" x1="1800.0" x2="0.0" y1="451.0" y2="451.0" /><line style="fill : none; stroke : black; stroke-width : 6.0; stroke-dasharray : none;" x1="0.0" x2="0.0" y1="451.0" y2="751.0" /><text font-size="105.0" x="510.0" y="631.0">LSTM, size = 1024</text><line style="fill : none; stroke : black; stroke-width : 6.0; stroke-dasharray : none;" x1="900.0" x2="900.0" y1="451.0" y2="301.0" /><path d=" M 24.02, 9.510190771321264  0, 0  24.02, -9.510190771321264   C  24.02, -9.510190771321264 20.6572, -4.089382031668143 20.6572, 0   20.6572, 4.089382031668143 24.02, 9.510190771321264 24.02, 9.510190771321264   Z " style="fill : black; stroke : black; stroke-width : 6.0; stroke-dasharray : none;" transform="translate(900.0,301.0) rotate(90.0,0,0)" /><line style="fill : none; stroke : black; stroke-width : 6.0; stroke-dasharray : none;" x1="0.0" x2="1800.0" y1="301.0" y2="301.0" /><line style="fill : none; stroke : black; stroke-width : 6.0; stroke-dasharray : none;" x1="1800.0" x2="1800.0" y1="301.0" y2="1.0" /><line style="fill : none; stroke : black; stroke-width : 6.0; stroke-dasharray : none;" x1="1800.0" x2="0.0" y1="1.0" y2="1.0" /><line style="fill : none; stroke : black; stroke-width : 6.0; stroke-dasharray : none;" x1="0.0" x2="0.0" y1="1.0" y2="301.0" /><text font-size="105.0" x="390.0" y="181.0">Dense, size = vocab_size</text></svg>