<?xml version="1.0" encoding="utf-8" ?>
<svg baseProfile="full" height="100%" version="1.1" viewBox="0,0,2701,1651" width="100%" xmlns="http://www.w3.org/2000/svg" xmlns:ev="http://www.w3.org/2001/xml-events" xmlns:xlink="http://www.w3.org/1999/xlink"><defs /><line style="fill : none; stroke : black; stroke-width : 6.0; stroke-dasharray : none;" x1="0.0" x2="2700.0" y1="1651.0" y2="1651.0" /><line style="fill : none; stroke : black; stroke-width : 6.0; stroke-dasharray : none;" x1="2700.0" x2="2700.0" y1="1651.0" y2="1351.0" /><line style="fill : none; stroke : black; stroke-width : 6.0; stroke-dasharray : none;" x1="2700.0" x2="0.0" y1="1351.0" y2="1351.0" /><line style="fill : none; stroke : black; stroke-width : 6.0; stroke-dasharray : none;" x1="0.0" x2="0.0" y1="1351.0" y2="1651.0" /><line style="fill : none; stroke : black; stroke-width : 6.0; stroke-dasharray : none;" x1="1350.0" x2="1350.0" y1="1651.0" y2="1351.0" /><line style="fill : none; stroke : black; stroke-width : 6.0; stroke-dasharray : none;" x1="675.0" x2="675.0" y1="1351.0" y2="1201.0" /><path d=" M 33.02, 13.073542850500756  0, 0  33.02, -13.073542850500756   C  33.02, -13.073542850500756 28.3972, -5.621623425715325 28.3972, 0   28.3972, 5.621623425715325 33.02, 13.073542850500756 33.02, 13.073542850500756   Z " style="fill : black; stroke : black; stroke-width : 6.0; stroke-dasharray : none;" transform="translate(675.0,1201.0) rotate(90.0,0,0)" /><line style="fill : none; stroke : black; stroke-width : 6.0; stroke-dasharray : none;" x1="2025.0" x2="2025.0" y1="1351.0" y2="1201.0" /><path d=" M 33.02, 13.073542850500756  0, 0  33.02, -13.073542850500756   C  33.02, -13.073542850500756 28.3972, -5.621623425715325 28.3972, 0   28.3972, 5.621623425715325 33.02, 13.073542850500756 33.02, 13.073542850500756   Z " style="fill : black; stroke : black; stroke-width : 6.0; stroke-dasharray : none;" transform="translate(2025.0,1201.0) rotate(90.0,0,0)" /><text font-size="105.0" x="66.00000000000006" y="1531.0">Embedding, dim = 256</text><text font-size="105.0" x="1465.5" y="1531.0">Cat. Emb., dim = 12</text><line style="fill : none; stroke : black; stroke-width : 6.0; stroke-dasharray : none;" x1="0.0" x2="2700.0" y1="1201.0" y2="1201.0" /><line style="fill : none; stroke : black; stroke-width : 6.0; stroke-dasharray : none;" x1="2700.0" x2="2700.0" y1="1201.0" y2="901.0" /><line style="fill : none; stroke : black; stroke-width : 6.0; stroke-dasharray : none;" x1="2700.0" x2="0.0" y1="901.0" y2="901.0" /><line style="fill : none; stroke : black; stroke-width : 6.0; stroke-dasharray : none;" x1="0.0" x2="0.0" y1="901.0" y2="1201.0" /><text font-size="105.0" x="1170.0" y="1081.0">Concat</text><line style="fill : none; stroke : black; stroke-width : 6.0; stroke-dasharray : none;" x1="1350.0" x2="1350.0" y1="901.0" y2="751.0" /><path d=" M 33.02, 13.073542850500756  0, 0  33.02, -13.073542850500756   C  33.02, -13.073542850500756 28.3972, -5.621623425715325 28.3972, 0   28.3972, 5.621623425715325 33.02, 13.073542850500756 33.02, 13.073542850500756   Z " style="fill : black; stroke : black; stroke-width : 6.0; stroke-dasharray : none;" transform="translate(1350.0,751.0) rotate(90.0,0,0)" /><line style="fill : none; stroke : black; stroke-width : 6.0; stroke-dasharray : none;" x1="0.0" x2="2700.0" y1="751.0" y2="751.0" /><line style="fill : none; stroke : black; stroke-width : 6.0; stroke-dasharray : none;" x1="2700.0" x2="2700.0" y1="751.0" y2="451.0" /><line style="fill : none; stroke : black; stroke-width : 6.0; stroke-dasharray : none;" x1="2700.0" x2="0.0" y1="451.0" y2="451.0" /><line style="fill : none; stroke : black; stroke-width : 6.0; stroke-dasharray : none;" x1="0.0" x2="0.0" y1="451.0" y2="751.0" /><text font-size="105.0" x="960.0" y="631.0">LSTM, size = 2048</text><line style="fill : none; stroke : black; stroke-width : 6.0; stroke-dasharray : none;" x1="1350.0" x2="1350.0" y1="451.0" y2="301.0" /><path d=" M 33.02, 13.073542850500756  0, 0  33.02, -13.073542850500756   C  33.02, -13.073542850500756 28.3972, -5.621623425715325 28.3972, 0   28.3972, 5.621623425715325 33.02, 13.073542850500756 33.02, 13.073542850500756   Z " style="fill : black; stroke : black; stroke-width : 6.0; stroke-dasharray : none;" transform="translate(1350.0,301.0) rotate(90.0,0,0)" /><line style="fill : none; stroke : black; stroke-width : 6.0; stroke-dasharray : none;" x1="0.0" x2="2700.0" y1="301.0" y2="301.0" /><line style="fill : none; stroke : black; stroke-width : 6.0; stroke-dasharray : none;" x1="2700.0" x2="2700.0" y1="301.0" y2="1.0" /><line style="fill : none; stroke : black; stroke-width : 6.0; stroke-dasharray : none;" x1="2700.0" x2="0.0" y1="1.0" y2="1.0" /><line style="fill : none; stroke : black; stroke-width : 6.0; stroke-dasharray : none;" x1="0.0" x2="0.0" y1="1.0" y2="301.0" /><text font-size="105.0" x="840.0" y="181.0">Dense, size = vocab_size</text></svg>