<?xml version="1.0" encoding="utf-8" ?>
<svg baseProfile="full" height="100%" version="1.1" viewBox="0,0,541,601" width="100%" xmlns="http://www.w3.org/2000/svg" xmlns:ev="http://www.w3.org/2001/xml-events" xmlns:xlink="http://www.w3.org/1999/xlink"><defs /><line style="fill : none; stroke : black; stroke-width : 1; stroke-dasharray : none;" x1="60.0" x2="465.0" y1="511.0" y2="511.0" /><line style="fill : none; stroke : black; stroke-width : 1; stroke-dasharray : none;" x1="465.0" x2="465.0" y1="511.0" y2="105.99999999999994" /><line style="fill : none; stroke : black; stroke-width : 1; stroke-dasharray : none;" x1="465.0" x2="60.0" y1="105.99999999999994" y2="105.99999999999994" /><line style="fill : none; stroke : black; stroke-width : 1; stroke-dasharray : none;" x1="60.0" x2="60.0" y1="105.99999999999994" y2="511.0" /><text font-size="78.0" x="91.49999999999999" y="323.5">Encoder</text><line style="fill : none; stroke : black; stroke-width : 1; stroke-dasharray : none;" x1="161.25000000000003" x2="161.25000000000003" y1="571.0" y2="511.0" /><path d=" M 10.82, 4.2839410551913435  0, 0  10.82, -4.2839410551913435   C  10.82, -4.2839410551913435 9.3052, -1.8420946537322775 9.3052, 0   9.3052, 1.8420946537322775 10.82, 4.2839410551913435 10.82, 4.2839410551913435   Z " style="fill : black; stroke : black; stroke-width : 1; stroke-dasharray : none;" transform="translate(161.25000000000003,511.0) rotate(90.0,0,0)" /><text font-size="30.0" x="41.25000000000002" y="601.0">Token sequence</text><line style="fill : none; stroke : black; stroke-width : 1; stroke-dasharray : none;" x1="363.75" x2="363.75" y1="571.0" y2="511.0" /><path d=" M 10.82, 4.2839410551913435  0, 0  10.82, -4.2839410551913435   C  10.82, -4.2839410551913435 9.3052, -1.8420946537322775 9.3052, 0   9.3052, 1.8420946537322775 10.82, 4.2839410551913435 10.82, 4.2839410551913435   Z " style="fill : black; stroke : black; stroke-width : 1; stroke-dasharray : none;" transform="translate(363.75,511.0) rotate(90.0,0,0)" /><text font-size="30.0" x="273.74999999999994" y="601.0">Mask (look ahead)</text><line style="fill : none; stroke : black; stroke-width : 1; stroke-dasharray : none;" x1="262.5" x2="262.5" y1="105.99999999999994" y2="46.0" /><path d=" M 10.82, 4.2839410551913435  0, 0  10.82, -4.2839410551913435   C  10.82, -4.2839410551913435 9.3052, -1.8420946537322775 9.3052, 0   9.3052, 1.8420946537322775 10.82, 4.2839410551913435 10.82, 4.2839410551913435   Z " style="fill : black; stroke : black; stroke-width : 1; stroke-dasharray : none;" transform="translate(262.5,46.0) rotate(90.0,0,0)" /><text font-size="30.0" x="217.5" y="31.0">Output</text></svg>